<svg width="21" height="22" viewBox="0 0 21 22" fill="none" xmlns="http://www.w3.org/2000/svg">
<path d="M12.7045 11.6044C12.58 12.1926 11.9242 12.624 10.6117 13.4859C9.34497 14.3194 8.71118 14.7371 8.18671 14.5913C7.96637 14.5273 7.76678 14.4065 7.60805 14.2408C7.21431 13.8321 7.19168 13.0175 7.14648 11.3904C7.10128 9.76323 7.07865 8.94872 7.4491 8.51874C7.60271 8.341 7.79492 8.20975 8.00743 8.13763C8.52297 7.96196 9.17897 8.34384 10.4909 9.10575C11.8484 9.89437 12.5271 10.2887 12.685 10.8681C12.7495 11.1085 12.7565 11.3607 12.7054 11.6044" stroke="white" stroke-width="1.67813" stroke-linecap="round" stroke-linejoin="round"/>
<path d="M18.7549 9.66884C18.7683 10.1068 18.7819 10.5728 18.7956 11.0667C18.9116 15.2399 18.9695 17.3274 17.7092 18.6597C16.4489 19.9921 14.3623 20.05 10.1882 20.166C6.015 20.2819 3.92747 20.3399 2.59514 19.0796C1.26281 17.8193 1.20485 15.7327 1.0889 11.5586C0.972968 7.38537 0.914978 5.29784 2.17529 3.96551C3.43559 2.63318 5.52219 2.57521 9.69632 2.45926C10.1902 2.44554 10.6562 2.43322 11.0943 2.42229" stroke="white" stroke-width="1.95781" stroke-linecap="round" stroke-linejoin="round"/>
<path d="M16.194 1.34622L16.4525 1.9891C16.7912 2.83213 16.9605 3.25365 17.2795 3.55537C17.5994 3.85798 18.0296 4.00365 18.8902 4.29498L19.5464 4.51738L18.9035 4.77586C18.0605 5.11451 17.639 5.28384 17.3373 5.6028C17.0347 5.92271 16.889 6.35298 16.5977 7.21352L16.3753 7.86975L16.1168 7.22687C15.7781 6.38384 15.6088 5.96232 15.2898 5.66061C14.9699 5.35799 14.5397 5.21232 13.6791 4.92099L13.0229 4.6986L13.6658 4.44011C14.5088 4.10146 14.9303 3.93213 15.232 3.61317C15.5347 3.29326 15.6803 2.86299 15.9717 2.00246L16.194 1.34622Z" stroke="white" stroke-width="1.67813" stroke-linecap="round" stroke-linejoin="round"/>
</svg>
